<?xml version="1.0" encoding="utf-8"?>
<!-- Generator: Adobe Illustrator 17.0.0, SVG Export Plug-In . SVG Version: 6.00 Build 0)  -->
<!DOCTYPE svg PUBLIC "-//W3C//DTD SVG 1.1//EN" "http://www.w3.org/Graphics/SVG/1.1/DTD/svg11.dtd">
<svg version="1.1" xmlns="http://www.w3.org/2000/svg" xmlns:xlink="http://www.w3.org/1999/xlink" x="0px" y="0px" width="800px"
	 height="518px" viewBox="0 0 800 518" enable-background="new 0 0 800 518" xml:space="preserve">
<g id="Background">
	<rect x="0.5" fill-rule="evenodd" clip-rule="evenodd" fill="#2F2D31" width="800" height="518"/>
</g>
<g id="ShareThis">
	<path fill-rule="evenodd" clip-rule="evenodd" fill="#00874F" d="M556,342h38c1.66,0,3,1.34,3,3v38c0,1.66-1.34,3-3,3h-38
		c-1.66,0-3-1.34-3-3v-38C553,343.34,554.34,342,556,342z"/>
	<path fill="#FFFFFF" d="M583.26,367.53c-1.04,0-1.98,0.39-2.71,1.01l-8.6-4.3c0-0.08,0.02-0.16,0.02-0.24s-0.02-0.16-0.02-0.24
		l8.6-4.3c0.73,0.62,1.67,1.01,2.71,1.01c2.34,0,4.24-1.9,4.24-4.24c0-2.33-1.9-4.23-4.24-4.23c-2.34,0-4.23,1.9-4.23,4.23
		c0,0.09,0.02,0.16,0.02,0.25l-8.6,4.29c-0.73-0.62-1.67-1.01-2.71-1.01c-2.34,0-4.24,1.9-4.24,4.24s1.9,4.23,4.24,4.23
		c1.04,0,1.98-0.39,2.71-1.01l8.6,4.3c0,0.08-0.02,0.16-0.02,0.24c0,2.34,1.89,4.24,4.23,4.24c2.34,0,4.24-1.9,4.24-4.24
		S585.6,367.53,583.26,367.53z"/>
</g>
<g id="Mail">
	<path fill-rule="evenodd" clip-rule="evenodd" fill="#1D8FDD" d="M486,342h38c1.66,0,3,1.34,3,3v38c0,1.66-1.34,3-3,3h-38
		c-1.66,0-3-1.34-3-3v-38C483,343.34,484.34,342,486,342z"/>
	<path fill-rule="evenodd" clip-rule="evenodd" fill="#FFFFFF" d="M491.42,355.59c0.31-0.36,0.75-0.59,1.26-0.59H505v10.8
		l-0.03,0.02L491.42,355.59z M505,365.8V355h12.32c0.51,0,0.95,0.23,1.26,0.59l-13.55,10.23L505,365.8z M491,356.98l7.61,5.75
		l-4.26,6.51l5.48-5.59l5.14,3.88l0.03-0.02V373h-14V356.98z M505,373v-5.49l0.03,0.02l5.14-3.88l5.48,5.59l-4.26-6.51l7.61-5.75
		V373H505z"/>
</g>
<g id="Skype">
	<path fill-rule="evenodd" clip-rule="evenodd" fill="#00AFEF" d="M416,342h38c1.66,0,3,1.34,3,3v38c0,1.66-1.34,3-3,3h-38
		c-1.66,0-3-1.34-3-3v-38C413,343.34,414.34,342,416,342z"/>
	<path fill="#FFFFFF" d="M435.97,372.41c-3.5,0.18-5.14-0.57-6.64-1.94c-1.68-1.53-1-3.28,0.36-3.37c1.37-0.09,2.19,1.51,2.92,1.95
		c0.72,0.44,3.49,1.45,4.96-0.18c1.59-1.77-1.06-2.68-3.01-2.96c-2.77-0.4-6.28-1.86-6-4.74c0.27-2.87,2.51-4.34,4.86-4.55
		c3.01-0.27,4.96,0.44,6.51,1.72c1.79,1.49,0.82,3.14-0.32,3.28c-1.13,0.13-2.41-2.44-4.91-2.48c-2.58-0.04-4.32,2.61-1.14,3.36
		c3.19,0.75,6.6,1.06,7.83,3.89C442.62,369.23,439.48,372.23,435.97,372.41z M445.86,366c0.06-0.47,0.1-0.95,0.1-1.44
		c0-5.89-4.93-10.66-11.02-10.66c-0.6,0-1.2,0.05-1.77,0.14c-1.04-0.66-2.27-1.04-3.59-1.04c-3.64,0-6.58,2.86-6.58,6.39
		c0,1.29,0.39,2.48,1.06,3.49c-0.09,0.54-0.14,1.1-0.14,1.68c0,5.88,4.93,10.66,11.02,10.66c0.69,0,1.36-0.07,2.01-0.18
		c1.01,0.61,2.2,0.96,3.47,0.96c3.64,0,6.58-2.86,6.58-6.4C447,368.27,446.58,367.03,445.86,366z"/>
</g>
<g id="Feed">
	<path fill-rule="evenodd" clip-rule="evenodd" fill="#EF912F" d="M346,342h38c1.66,0,3,1.34,3,3v38c0,1.66-1.34,3-3,3h-38
		c-1.66,0-3-1.34-3-3v-38C343,343.34,344.34,342,346,342z"/>
	<path fill-rule="evenodd" clip-rule="evenodd" fill="#FFFFFF" d="M356.28,369.14c1.86,0,3.38,1.53,3.38,3.43
		c0,1.89-1.52,3.43-3.38,3.43c-1.87,0-3.39-1.54-3.39-3.43C352.89,370.67,354.41,369.14,356.28,369.14z M368.9,375.99h-4.74
		c-0.56-10.85-11.28-11.3-11.28-11.3v-4.7C369.12,360.66,368.9,375.99,368.9,375.99z M376.89,376.01h-4.68
		c-1.12-18.07-19.3-19.3-19.3-19.3v-4.72C378.12,353.45,376.89,376.01,376.89,376.01z"/>
</g>
<g id="Tumblr">
	<path fill-rule="evenodd" clip-rule="evenodd" fill="#456383" d="M276,342h38c1.66,0,3,1.34,3,3v38c0,1.66-1.34,3-3,3h-38
		c-1.66,0-3-1.34-3-3v-38C273,343.34,274.34,342,276,342z"/>
	<path fill="#FFFFFF" d="M299.17,372.07c-2.05,0-3.17-1.6-3.17-2.84v-7.19h4.99V358H296v-6h-3.48c0,5.21-4.52,6.18-4.52,6.18v3.81h3
		v8.57c0,2.97,2.74,5.44,6.07,5.44c3.34,0,4.93-1.33,4.93-1.33v-3.93C302,370.74,301.23,372.07,299.17,372.07z"/>
</g>
<g id="Behance">
	<path fill-rule="evenodd" clip-rule="evenodd" fill="#1D6FED" d="M206,342h38c1.66,0,3,1.34,3,3v38c0,1.66-1.34,3-3,3h-38
		c-1.66,0-3-1.34-3-3v-38C203,343.34,204.34,342,206,342z"/>
	<path fill-rule="evenodd" clip-rule="evenodd" fill="#FFFFFF" d="M218.78,364.32h-3.81v4.02h3.75c1.29,0,2.31-0.41,2.31-1.93
		C221.03,364.92,220.17,364.32,218.78,364.32z M218.29,358.47h-3.32v3.42h3.57c1.13,0,1.98-0.51,1.98-1.74
		C220.52,358.75,219.45,358.47,218.29,358.47z M224.37,366.47c0,2.97-2.55,4.24-5.21,4.24H212V356h6.95c2.81,0,4.72,0.99,4.72,3.72
		c0,1.43-0.73,2.43-2.01,3.05C223.46,363.28,224.37,364.65,224.37,366.47z M227.87,356.99h5.92v1.97h-5.92V356.99z M230.52,362.03
		c-1.86,0-2.4,1.04-2.44,1.85h4.78C232.59,362.41,231.95,362.03,230.52,362.03z M228.08,365.79c0.08,1.84,0.99,3.02,2.62,3.02
		c1.18,0,2.26-0.96,2.45-1.62h2.58c-0.82,2.5-2.71,3.81-5.13,3.81c-3.37,0-5.49-2.29-5.49-5.57c0-3.17,2.25-5.59,5.49-5.59
		c3.64,0,5.4,2.69,5.19,5.95H228.08z"/>
</g>
<g id="Last.fm">
	<path fill-rule="evenodd" clip-rule="evenodd" fill="#DD1500" d="M556,272h38c1.66,0,3,1.34,3,3v38c0,1.66-1.34,3-3,3h-38
		c-1.66,0-3-1.34-3-3v-38C553,273.34,554.34,272,556,272z"/>
	<path fill="#FFFFFF" d="M577.95,297.86l-0.26-0.62l-2.29-5.45c-0.75-1.93-2.63-3.24-4.75-3.24c-2.87,0-5.2,2.44-5.2,5.45
		s2.33,5.45,5.2,5.45c2,0,3.74-1.19,4.61-2.93l0.92,2.24c-1.31,1.67-3.3,2.74-5.53,2.74c-3.95,0-7.16-3.35-7.16-7.5
		c0-4.14,3.21-7.5,7.16-7.5c2.98,0,5.39,1.67,6.61,4.63c0.09,0.23,1.3,3.17,2.34,5.67c0.65,1.55,1.2,2.58,3,2.65
		c1.76,0.06,2.97-1.06,2.97-2.49c0-1.39-0.92-1.72-2.48-2.26c-2.8-0.97-4.24-1.94-4.24-4.27c0-2.27,1.47-3.78,3.86-3.78
		c1.56,0,2.69,0.73,3.47,2.18l-1.53,0.82c-0.58-0.85-1.21-1.18-2.02-1.18c-1.13,0-1.93,0.82-1.93,1.91c0,1.54,1.32,1.78,3.17,2.41
		c2.48,0.85,3.64,1.82,3.64,4.24c0,2.54-2.08,4.39-4.8,4.38C580.21,301.4,578.88,300.12,577.95,297.86z"/>
</g>
<g id="Foursquare">
	<path fill-rule="evenodd" clip-rule="evenodd" fill="#0BB9DF" d="M486,272h38c1.66,0,3,1.34,3,3v38c0,1.66-1.34,3-3,3h-38
		c-1.66,0-3-1.34-3-3v-38C483,273.34,484.34,272,486,272z"/>
	<path fill-rule="evenodd" clip-rule="evenodd" fill="#FFFFFF" d="M501.32,289.43c-0.5-0.5-1.2-0.79-1.9-0.79
		c-0.72,0-1.41,0.29-1.91,0.79l-2.29,2.29c-0.51,0.51-0.79,1.19-0.79,1.91c0,0.71,0.28,1.39,0.79,1.9l7.76,7.78
		c0.36,0.36,0.8,0.6,1.28,0.72l0.11,0.07h0.53c0.71,0,1.39-0.28,1.9-0.78l11.8-11.81l0.06,0.05c1.34,1.34,1.34,3.54,0,4.88
		l-11.22,11.22c-1.34,1.34-3.54,1.34-4.88,0l-11.22-11.22c-1.34-1.34-1.34-3.54,0-4.88l11.22-11.22c1.34-1.34,3.54-1.34,4.88,0
		l5.07,5.07l-7.61,7.61L501.32,289.43z M519.47,288.15l-13.94,13.94c-0.19,0.19-0.43,0.29-0.69,0.29h-0.01l-0.11-0.01
		c-0.22-0.02-0.42-0.12-0.57-0.28l-7.77-7.78c-0.38-0.38-0.38-0.99,0-1.37l2.29-2.29c0.18-0.18,0.43-0.28,0.68-0.28
		c0.26,0,0.51,0.1,0.69,0.28l4.8,4.81l10.97-10.97c0.18-0.18,0.42-0.29,0.68-0.28c0.26-0.01,0.5,0.1,0.68,0.28l2.3,2.29
		C519.84,287.16,519.84,287.77,519.47,288.15z"/>
</g>
<g id="Wordpress">
	<path fill-rule="evenodd" clip-rule="evenodd" fill="#2385B3" d="M416,272h38c1.66,0,3,1.34,3,3v38c0,1.66-1.34,3-3,3h-38
		c-1.66,0-3-1.34-3-3v-38C413,273.34,414.34,272,416,272z"/>
	<path fill="#FFFFFF" d="M446.04,288.24c0.05,0.38,0.08,0.79,0.08,1.23c0,1.22-0.23,2.59-0.91,4.3l-3.67,10.61
		c3.57-2.08,5.97-5.95,5.97-10.38C447.51,291.91,446.97,289.95,446.04,288.24z M435.71,295.05l-3.6,10.47
		c1.07,0.32,2.21,0.49,3.39,0.49c1.4,0,2.74-0.24,3.99-0.68c-0.03-0.05-0.06-0.11-0.09-0.17L435.71,295.05z M443.61,293.39
		c0-1.48-0.54-2.51-0.99-3.31c-0.61-0.99-1.18-1.82-1.18-2.81c0-1.11,0.83-2.13,2.01-2.13l0.16,0.01c-2.14-1.96-4.98-3.16-8.11-3.16
		c-4.19,0-7.88,2.16-10.03,5.42l0.77,0.01c1.26,0,3.2-0.15,3.2-0.15c0.65-0.04,0.73,0.91,0.08,0.99c0,0-0.65,0.07-1.38,0.11
		l4.38,13.01l2.62-7.88l-1.87-5.13c-0.64-0.04-1.26-0.11-1.26-0.11c-0.64-0.04-0.57-1.03,0.08-0.99c0,0,1.98,0.15,3.16,0.15
		c1.26,0,3.2-0.15,3.2-0.15c0.65-0.04,0.73,0.91,0.08,0.99c0,0-0.65,0.07-1.38,0.11l4.35,12.91l1.19-4
		C443.3,295.71,443.61,294.42,443.61,293.39z M423.49,294c0,4.75,2.77,8.86,6.77,10.81l-5.73-15.7
		C423.87,290.61,423.49,292.26,423.49,294z"/>
</g>
<g id="Evernote">
	<path fill-rule="evenodd" clip-rule="evenodd" fill="#79C143" d="M346,272h38c1.66,0,3,1.34,3,3v38c0,1.66-1.34,3-3,3h-38
		c-1.66,0-3-1.34-3-3v-38C343,273.34,344.34,272,346,272z"/>
	<path fill-rule="evenodd" clip-rule="evenodd" fill="#FFFFFF" d="M355.93,286.75l4.95-4.92v4.02l-1.01,0.9H355.93z M370.45,291.66
		c-0.9,0-1.32,1.66-1.32,1.66l3.3,0.45C372.43,293.77,371.35,291.66,370.45,291.66z M375.85,295.92c0.3,9.07-4.84,9.91-4.84,9.91
		l-2.51-0.02c0,0-3.61,0.36-3.64-3.71c0.03-2.99,3.97-2.78,3.97-2.78l0.02,1.8c0,0-2.11-0.34-2.01,1.13
		c-0.03,0.66,0.5,1.37,0.85,1.53c1.47,0,1.48,0.02,2.59,0.03c0,0,1.1,0.06,1.59-1.3c0.02-0.23,0-0.04,0-2.33
		c0-2.29-3.32-2.44-3.49-2.44c-1.69,0.13-3.52-2.51-3.52-2.51s-0.04,2.18-0.04,2.7c-0.49,2.59-5.38,1.65-5.39,1.65
		c-4.43-0.65-4.52-8.97-4.52-8.97s-0.06-1.65,1.28-2.81c0.01-0.01,4.78-0.01,4.78-0.01l0.92-1.04v-3.45c0-1.28,0.45-1.43,2.14-1.47
		c2.38,0.07,3.15,2.03,3.15,2.03h2.93c0,0,2.47,0,3.9,1.2C375.1,285.92,376.11,290.71,375.85,295.92z"/>
</g>
<g id="Yahoo">
	<path fill-rule="evenodd" clip-rule="evenodd" fill="#5F0D8D" d="M276,272h38c1.66,0,3,1.34,3,3v38c0,1.66-1.34,3-3,3h-38
		c-1.66,0-3-1.34-3-3v-38C273,273.34,274.34,272,276,272z"/>
	<path fill-rule="evenodd" clip-rule="evenodd" fill="#FFFFFF" d="M308.77,301.97h-3.61v-2.78h3.61V301.97z M309.99,291.62
		l-1.24,6.61l-3.59,0.01v-6.62H309.99z M295.5,297.28v3.77l3.59-0.01l-0.01,0.95h-6.34h-5.71v-0.96l3.65,0.01v-3.75l-5.52-9.43
		l-4.15,0.01v-1.86h12.02l0.01,1.85h-3.05l4.02,6.88l4.29-4.96h-2.79l-0.01-1.92l10.85,0.01v1.9h-4.41L295.5,297.28z"/>
</g>
<g id="Blogger">
	<path fill-rule="evenodd" clip-rule="evenodd" fill="#FB9747" d="M206,272h38c1.66,0,3,1.34,3,3v38c0,1.66-1.34,3-3,3h-38
		c-1.66,0-3-1.34-3-3v-38C203,273.34,204.34,272,206,272z"/>
	<path fill-rule="evenodd" clip-rule="evenodd" fill="#FFFFFF" d="M231,298c0-0.55-0.44-1-1-1h-10c-0.56,0-1,0.45-1,1v1
		c0,0.55,0.44,1,1,1h10c0.56,0,1-0.45,1-1V298z M227,289c0-0.55-0.45-1-1-1h-6c-0.56,0-1,0.45-1,1v1c0,0.55,0.44,1,1,1h6
		c0.55,0,1-0.45,1-1V289z M236.95,298.43c-0.02,4.16-3.42,7.57-7.6,7.57h-8.74c-4.19,0-7.61-3.41-7.61-7.57v-8.85
		c0-4.17,3.42-7.58,7.61-7.58h5.31c1.97,0.23,4.83,1.91,5.88,4.14c0.29,0.62,0.44,0.64,0.68,2.49c0.13,0.95,0.2,1.66,0.63,2.05
		c0.6,0.55,2.84,0.18,3.28,0.52l0.34,0.27l0.2,0.41l0.07,0.34L236.95,298.43z"/>
</g>
<g id="Pinterest">
	<path fill-rule="evenodd" clip-rule="evenodd" fill="#B72329" d="M556,202h38c1.66,0,3,1.34,3,3v38c0,1.66-1.34,3-3,3h-38
		c-1.66,0-3-1.34-3-3v-38C553,203.34,554.34,202,556,202z"/>
	<path fill="#FFFFFF" d="M575.5,212c-6.63,0-12,5.37-12,12c0,4.91,2.96,9.13,7.18,10.99c-0.03-0.84,0-1.84,0.21-2.76l1.55-6.53
		c0,0-0.39-0.77-0.39-1.9c0-1.78,1.03-3.11,2.32-3.11c1.09,0,1.62,0.82,1.62,1.8c0,1.1-0.7,2.74-1.06,4.26
		c-0.3,1.27,0.63,2.31,1.89,2.31c2.27,0,3.8-2.92,3.8-6.38c0-2.63-1.77-4.59-4.99-4.59c-3.64,0-5.9,2.71-5.9,5.74
		c0,1.05,0.3,1.78,0.79,2.35c0.22,0.27,0.25,0.37,0.17,0.67l-0.25,0.97c-0.08,0.3-0.32,0.41-0.6,0.3c-1.67-0.69-2.45-2.52-2.45-4.59
		c0-3.41,2.87-7.49,8.57-7.49c4.58,0,7.6,3.31,7.6,6.87c0,4.71-2.62,8.22-6.48,8.22c-1.29,0-2.51-0.7-2.93-1.49
		c0,0-0.69,2.76-0.84,3.3c-0.26,0.92-0.75,1.85-1.21,2.57c1.08,0.31,2.22,0.49,3.4,0.49c6.63,0,12-5.37,12-12S582.13,212,575.5,212z
		"/>
</g>
<g id="Stumbleupon">
	<path fill-rule="evenodd" clip-rule="evenodd" fill="#E94B23" d="M486,202h38c1.66,0,3,1.34,3,3v38c0,1.66-1.34,3-3,3h-38
		c-1.66,0-3-1.34-3-3v-38C483,203.34,484.34,202,486,202z"/>
	<path fill="#FFFFFF" d="M512.13,232.99c-2.95,0-5.54-2.33-5.56-5.21v-3.7l1.84,1.41l2.09-1.5v3.85c0,0.68,0.92,1.29,1.62,1.29
		c0.7,0,1.37-0.61,1.37-1.29v-3.88h4v3.77C517.49,230.64,515.09,232.99,512.13,232.99z M505.5,219.05c-0.7,0-1.02,0.55-1.02,1.24
		v7.51c-0.05,2.88-2.67,5.19-5.61,5.19c-2.96,0-5.36-2.35-5.36-5.26v-3.72h3.95v3.68c0,0.68,0.72,1.24,1.42,1.24
		c0.7,0,1.57-0.56,1.57-1.24v-7.61c0.1-2.82,2.22-5.07,5.11-5.07c2.91,0,4.84,2.27,4.93,5.1v1.67l-1.83,1.15l-2.07-1.19v-1.45
		C506.59,219.6,506.2,219.05,505.5,219.05z"/>
</g>
<g id="Forrst">
	<path fill-rule="evenodd" clip-rule="evenodd" fill="#257333" d="M416,202h38c1.66,0,3,1.34,3,3v38c0,1.66-1.34,3-3,3h-38
		c-1.66,0-3-1.34-3-3v-38C413,203.34,414.34,202,416,202z"/>
	<polygon fill="#FFFFFF" points="434.44,230.91 432,229.23 432.38,228.66 434.44,230.07 434.44,226.06 436.64,226.06 436.64,228.62 
		438.65,227.56 439,228.19 436.64,229.44 436.64,231.29 440.41,229.39 440.72,230 436.64,232.05 436.64,236 445.49,236 435.5,212 
		425.51,236 434.44,236 	"/>
</g>
<g id="Dribbble">
	<path fill-rule="evenodd" clip-rule="evenodd" fill="#EB4D89" d="M346,202h38c1.66,0,3,1.34,3,3v38c0,1.66-1.34,3-3,3h-38
		c-1.66,0-3-1.34-3-3v-38C343,203.34,344.34,202,346,202z"/>
	<path fill="#FFFFFF" d="M370.16,232.27c-0.41-2.41-1.08-4.7-1.89-6.83c1.75-0.22,3.77-0.17,6.11,0.26
		C373.91,228.42,372.35,230.76,370.16,232.27z M358.42,231.96c1.69-2.55,4.05-5.07,7.88-6.13c0.9,2.3,1.63,4.8,2.02,7.44
		c-1.18,0.48-2.47,0.75-3.82,0.75C362.21,234.02,360.1,233.25,358.42,231.96z M354.48,224v-0.32h0.06c3.57,0,7.12-0.24,10.3-1.17
		c0.23,0.48,0.47,0.97,0.69,1.48c-4.18,1.23-6.79,3.98-8.57,6.6C355.41,228.83,354.48,226.52,354.48,224z M360.19,214.95
		c1.02,1.36,2.38,3.34,3.71,5.76c-2.82,0.77-5.97,0.98-9.15,0.99C355.45,218.72,357.49,216.25,360.19,214.95z M370.99,216.37
		c-1.41,1.72-3.18,2.9-5.19,3.7c-1.28-2.38-2.61-4.36-3.66-5.81c0.76-0.18,1.55-0.28,2.36-0.28
		C366.98,213.98,369.24,214.88,370.99,216.37z M372.37,217.81c1.29,1.64,2.08,3.68,2.15,5.91c-2.7-0.47-5.02-0.49-7.02-0.17
		c-0.26-0.58-0.52-1.15-0.79-1.7C368.86,220.97,370.79,219.68,372.37,217.81z M364.5,212c-6.63,0-12,5.37-12,12s5.37,12,12,12
		s12-5.37,12-12S371.13,212,364.5,212z"/>
</g>
<g id="YouTube">
	<path fill-rule="evenodd" clip-rule="evenodd" fill="#C9312B" d="M276,202h38c1.66,0,3,1.34,3,3v38c0,1.66-1.34,3-3,3h-38
		c-1.66,0-3-1.34-3-3v-38C273,203.34,274.34,202,276,202z"/>
	<path fill-rule="evenodd" clip-rule="evenodd" fill="#FFFFFF" d="M301.98,225.58l-12.75,8.77c-1,0.65-2.23,0.07-2.23-1.22v-1.04
		h0.01v-13.65H287v-2.54c0-1.29,1.23-1.9,2.23-1.25l12.77,8.57C303,223.87,302.98,224.93,301.98,225.58z"/>
</g>
<g id="Vimeo">
	<path fill-rule="evenodd" clip-rule="evenodd" fill="#619FAD" d="M206,202h38c1.66,0,3,1.34,3,3v38c0,1.66-1.34,3-3,3h-38
		c-1.66,0-3-1.34-3-3v-38C203,203.34,204.34,202,206,202z"/>
	<path fill="#FFFFFF" d="M212.89,220l0.98,1.28c0,0,2.01-1.59,2.68-0.8c0.67,0.8,3.23,10.4,4.08,12.17c0.74,1.55,2.8,3.6,5.05,2.14
		c2.25-1.47,9.75-7.89,11.09-15.47c1.34-7.57-9.02-5.99-10.11,0.62c2.74-1.66,4.2,0.67,2.8,3.3c-1.4,2.62-2.68,4.34-3.35,4.34
		s-1.18-1.76-1.95-4.83c-0.79-3.18-0.79-8.9-4.08-8.26C216.97,215.11,212.89,220,212.89,220z"/>
</g>
<g id="LinkedIn">
	<path fill-rule="evenodd" clip-rule="evenodd" fill="#005987" d="M556,132h38c1.66,0,3,1.34,3,3v38c0,1.66-1.34,3-3,3h-38
		c-1.66,0-3-1.34-3-3v-38C553,133.34,554.34,132,556,132z"/>
	<path fill-rule="evenodd" clip-rule="evenodd" fill="#FFFFFF" d="M566.52,147.99c-0.55,0-1.02-0.2-1.42-0.59
		c-0.39-0.39-0.58-0.87-0.58-1.44c0-0.54,0.19-1,0.58-1.38c0.39-0.38,0.85-0.57,1.4-0.57s1.02,0.19,1.41,0.58
		c0.39,0.39,0.59,0.86,0.59,1.42c0,0.55-0.19,1.01-0.58,1.4C567.53,147.8,567.07,147.99,566.52,147.99z M564.51,148.99h4v15h-4
		V148.99z M582.51,163.99v-6.01c0-1.84-0.1-3.06-0.29-3.66c-0.2-0.6-0.54-1.06-1.02-1.38c-0.48-0.32-1.07-0.47-1.78-0.47
		c-0.92,0-1.71,0.26-2.37,0.78c-0.65,0.52-1.11,1.25-1.37,2.17c-0.13,0.48-0.19,1.53-0.19,3.13v5.44h-3.98v-15h4v2
		c1.03-0.73,1.94-1.34,2.77-1.63c0.84-0.29,1.41-0.43,2.28-0.43c1.8,0,3.03,0.53,4.28,1.6c1.06,0.9,1.65,2.24,1.65,4.02v9.44H582.51
		z"/>
</g>
<g id="Instragram">
	<path fill-rule="evenodd" clip-rule="evenodd" fill="#496F9B" d="M486,132h38c1.66,0,3,1.34,3,3v38c0,1.66-1.34,3-3,3h-38
		c-1.66,0-3-1.34-3-3v-38C483,133.34,484.34,132,486,132z"/>
	<path fill-rule="evenodd" clip-rule="evenodd" fill="#FFFFFF" d="M515,146c0-1.1-0.89-2-2-2h-1c-1.1,0-2,0.9-2,2v1c0,1.1,0.9,2,2,2
		h1c1.11,0,2-0.9,2-2V146z M505,161c-3.86,0-7-3.14-7-7c0-1.08,0.27-2.09,0.7-3H496v12h18v-12h-2.7c0.44,0.91,0.7,1.92,0.7,3
		C512,157.86,508.87,161,505,161z M505,150c-2.21,0-4,1.79-4,4s1.79,4,4,4s4-1.79,4-4S507.21,150,505,150z M515.57,166h-21.14
		c-0.79,0-1.43-0.64-1.43-1.43v-21.14c0-0.79,0.64-1.43,1.43-1.43h21.14c0.79,0,1.43,0.64,1.43,1.43v21.14
		C517,165.36,516.36,166,515.57,166z"/>
</g>
<g id="Myspace">
	<path fill-rule="evenodd" clip-rule="evenodd" fill="#474747" d="M416,132h38c1.66,0,3,1.34,3,3v38c0,1.66-1.34,3-3,3h-38
		c-1.66,0-3-1.34-3-3v-38C413,133.34,414.34,132,416,132z"/>
	<polygon fill-rule="evenodd" clip-rule="evenodd" fill="#FFFFFF" points="447,166 423.01,166 423,156 427,156 427,162 443,162 
		443,156 447,156 447,163.14 	"/>
</g>
<g id="Google">
	<path fill-rule="evenodd" clip-rule="evenodd" fill="#D94935" d="M346,132h38c1.66,0,3,1.34,3,3v38c0,1.66-1.34,3-3,3h-38
		c-1.66,0-3-1.34-3-3v-38C343,133.34,344.34,132,346,132z"/>
	<path fill-rule="evenodd" clip-rule="evenodd" fill="#FFFFFF" d="M362.4,143.54c-0.8,0-1.66,0.41-2.15,1.04
		c-0.52,0.66-0.68,1.51-0.68,2.33c0,2.11,1.2,5.61,3.84,5.61c0.77,0,1.6-0.38,2.1-0.89c0.7-0.72,0.76-1.73,0.76-2.3
		C366.27,147.07,364.95,143.54,362.4,143.54z M360.68,158.09c-0.68,0.25-2.64,1.01-2.64,3.25c0,2.23,2.12,3.84,5.41,3.84
		c2.95,0,4.51-1.45,4.51-3.4c0-1.61-1.01-2.46-3.35-4.16c-0.24-0.03-0.4-0.03-0.7-0.03C363.63,157.59,361.97,157.65,360.68,158.09z
		 M366.8,143.63c0.7,0.6,2.18,1.86,2.18,4.26c0,2.33-1.29,3.43-2.58,4.47c-0.4,0.41-0.86,0.85-0.86,1.54c0,0.69,0.46,1.07,0.79,1.36
		l1.11,0.88c1.35,1.16,2.58,2.23,2.58,4.41c0,2.96-2.79,5.95-8.08,5.95c-4.46,0-6.61-2.17-6.61-4.5c0-1.14,0.56-2.74,2.37-3.85
		c1.9-1.19,4.49-1.35,5.87-1.44c-0.43-0.57-0.92-1.17-0.92-2.15c0-0.53,0.15-0.85,0.3-1.23c-0.33,0.04-0.67,0.07-0.98,0.07
		c-3.26,0-5.1-2.49-5.1-4.95c0-1.45,0.64-3.05,1.97-4.22c1.75-1.48,3.84-1.73,5.5-1.73h6.33l-1.97,1.13H366.8z M378,149h-2v2h-2v-2
		h-2v-2h2v-2h2v2h2V149z"/>
</g>
<g id="Twitter">
	<path fill-rule="evenodd" clip-rule="evenodd" fill="#4D9DDB" d="M276,132h38c1.66,0,3,1.34,3,3v38c0,1.66-1.34,3-3,3h-38
		c-1.66,0-3-1.34-3-3v-38C273,133.34,274.34,132,276,132z"/>
	<path fill="#FFFFFF" d="M309.13,145.72c-0.99,0.47-2.06,0.78-3.18,0.92c1.14-0.72,2.02-1.86,2.43-3.21
		c-1.07,0.66-2.25,1.14-3.51,1.41c-1.02-1.13-2.45-1.84-4.05-1.84c-3.06,0-5.54,2.6-5.54,5.81c0,0.45,0.05,0.9,0.15,1.32
		c-4.61-0.24-8.69-2.55-11.42-6.07c-0.48,0.86-0.75,1.86-0.75,2.92c0,2.02,0.98,3.79,2.46,4.84c-0.91-0.03-1.76-0.3-2.51-0.73v0.07
		c0,2.81,1.91,5.16,4.45,5.69c-0.47,0.14-0.96,0.21-1.46,0.21c-0.36,0-0.71-0.04-1.04-0.11c0.7,2.31,2.75,3.99,5.17,4.04
		c-1.9,1.55-4.28,2.48-6.88,2.48c-0.45,0-0.89-0.03-1.32-0.08c2.45,1.65,5.36,2.61,8.49,2.61c10.19,0,15.76-8.85,15.76-16.52
		c0-0.25,0-0.5-0.02-0.75C307.45,147.91,308.39,146.89,309.13,145.72z"/>
</g>
<g id="Facebook">
	<path fill-rule="evenodd" clip-rule="evenodd" fill="#4F77B3" d="M206,132h38c1.66,0,3,1.34,3,3v38c0,1.66-1.34,3-3,3h-38
		c-1.66,0-3-1.34-3-3v-38C203,133.34,204.34,132,206,132z"/>
	<path fill-rule="evenodd" clip-rule="evenodd" fill="#FFFFFF" d="M236,142v5h-3c0,0-1,0.01-1,1v2h4l-0.98,5.02L232,155v11h-5v-11
		h-3v-5h3l0.24-3.34c0,0-0.43-4.67,4.4-4.67S236,142,236,142z"/>
</g>
</svg>
